<svg xmlns="http://www.w3.org/2000/svg" width="768" height="768" viewBox="0 0 768 768">
  <rect width="768" height="768" fill="#ECE4D9" />

  <ellipse cx="170" cy="140" rx="170" ry="88" fill="#6EA1FF" />
  <ellipse cx="362" cy="290" rx="130" ry="72" fill="#6EA1FF" />
  <ellipse cx="570" cy="140" rx="180" ry="86" fill="#FFC623" />
  <ellipse cx="640" cy="286" rx="108" ry="62" fill="#FFC623" />

  <path d="M0 556C110 520 190 494 292 520C418 552 508 604 768 580V768H0Z" fill="#D05B38" />
  <path d="M0 640C130 598 240 582 346 614C446 644 576 708 768 682V768H0Z" fill="#F48349" />
  <path d="M0 702C98 674 170 668 246 692C324 716 450 748 768 724V768H0Z" fill="#FF8C4E" />

  <ellipse cx="82" cy="696" rx="118" ry="160" fill="#06A66B" />
  <ellipse cx="330" cy="744" rx="102" ry="92" fill="#06A66B" />
  <ellipse cx="696" cy="724" rx="122" ry="132" fill="#FFA18F" />

  <line x1="190" y1="278" x2="190" y2="616" stroke="#111" stroke-width="10" />
  <circle cx="190" cy="278" r="13" fill="#ECE4D9" stroke="#111" stroke-width="8" />
  <line x1="190" y1="278" x2="94" y2="210" stroke="#111" stroke-width="10" />
  <line x1="190" y1="278" x2="302" y2="280" stroke="#111" stroke-width="10" />
  <line x1="190" y1="278" x2="146" y2="392" stroke="#111" stroke-width="10" />

  <line x1="436" y1="340" x2="436" y2="640" stroke="#111" stroke-width="10" />
  <circle cx="436" cy="340" r="13" fill="#ECE4D9" stroke="#111" stroke-width="8" />
  <line x1="436" y1="340" x2="438" y2="252" stroke="#111" stroke-width="10" />
  <line x1="436" y1="340" x2="548" y2="346" stroke="#111" stroke-width="10" />
  <line x1="436" y1="340" x2="396" y2="430" stroke="#111" stroke-width="10" />

  <path d="M536 454L704 454L748 516L594 516Z" fill="#ECE4D9" stroke="#111" stroke-width="8" />
  <path d="M564 516H704V648H564Z" fill="#ECE4D9" stroke="#111" stroke-width="8" />
  <line x1="574" y1="468" x2="699" y2="468" stroke="#111" stroke-width="6" />
  <line x1="590" y1="454" x2="560" y2="516" stroke="#111" stroke-width="6" />
  <line x1="626" y1="454" x2="596" y2="516" stroke="#111" stroke-width="6" />
  <line x1="662" y1="454" x2="632" y2="516" stroke="#111" stroke-width="6" />
  <line x1="700" y1="454" x2="668" y2="516" stroke="#111" stroke-width="6" />

  <line x1="0" y1="724" x2="90" y2="694" stroke="#FCA445" stroke-width="14" />
  <line x1="236" y1="714" x2="248" y2="684" stroke="#043A31" stroke-width="6" />
  <line x1="330" y1="706" x2="340" y2="676" stroke="#043A31" stroke-width="6" />
  <line x1="76" y1="684" x2="84" y2="652" stroke="#043A31" stroke-width="6" />
</svg>
